<mxfile
  host="Electron" 
  agent="Mozilla/5.0 (Macintosh; Intel Mac OS X 10_15_7) AppleWebKit/537.36 (KHTML, like Gecko) draw.io/25.0.2 Chrome/128.0.6613.186 Electron/32.2.5 Safari/537.36" 
  version="25.0.2"
  >
  <diagram
    name="-"
    >
    <mxGraphModel
      grid="1" 
      gridSize="10" 
      guides="1" 
      tooltips="1" 
      connect="1" 
      arrows="1" 
      fold="1" 
      page="1" 
      pageScale="1" 
      pageWidth="1" 
      pageHeight="1" 
      math="0" 
      shadow="0"
      >
      <root>
        <mxCell
          id="page"
          />
        <mxCell
          id="root" 
          parent="page"
          />
        <mxCell
          style="verticalAlign=top;aspect=fixed;align=center;spacingLeft=5;spacingRight=5;spacingBottom=5;strokeColor=none;" 
          id="shape_" 
          parent="root" 
          value=" " 
          vertex="1"
          >
          <mxGeometry
            as="geometry" 
            width="213.38" 
            height="134.48000000000002" 
            x="0" 
            y="0"
            />
          </mxCell>
        <mxCell
          style="rounded=1;whiteSpace=wrap;verticalAlign=top;align=center;verticalLabelPosition=bottom;aspect=fixed;html=1;fillColor=strokeColor;outlineConnect=0;shape=mxgraph.fluid_power.x10350;points=[[0.665,0,0],[0.665,1,0],[0.785,0,0],[0.785,1,0],[0,0.5,0],[0,0.625,0],[0,0.75,0],[0.42,0.25,0],[0.42,0.75,0],[0.545,0.25,0],[0.545,0.75,0]];" 
          id="x1035042_directional_" 
          parent="shape_" 
          value=" " 
          vertex="1"
          >
          <mxGeometry
            width="153.38" 
            height="74.48" 
            as="geometry" 
            x="30" 
            y="30"
            />
          </mxCell>
        </root>
      </mxGraphModel>
    </diagram>
  </mxfile>